<svg width="30" height="30" viewBox="0 0 30 30" fill="none" xmlns="http://www.w3.org/2000/svg">
<path d="M17.5499 4.7796L8.3435 14.224C8.1818 14.3899 8.09131 14.6124 8.09131 14.8441C8.09131 15.0757 8.1818 15.2982 8.3435 15.4641L17.5499 24.9121C17.6252 24.9894 17.7152 25.0509 17.8147 25.0929C17.9142 25.1349 18.0211 25.1565 18.129 25.1565C18.237 25.1565 18.3439 25.1349 18.4433 25.0929C18.5428 25.0509 18.6329 24.9894 18.7082 24.9121C18.8632 24.7534 18.9499 24.5404 18.9499 24.3187C18.9499 24.0969 18.8632 23.8839 18.7082 23.7253L10.0508 14.8441L18.7082 5.96459C18.8626 5.80603 18.949 5.59343 18.949 5.3721C18.949 5.15076 18.8626 4.93816 18.7082 4.7796C18.6329 4.70224 18.5428 4.64075 18.4433 4.59877C18.3439 4.55679 18.237 4.53516 18.129 4.53516C18.0211 4.53516 17.9142 4.55679 17.8147 4.59877C17.7152 4.64075 17.6252 4.70224 17.5499 4.7796Z" fill="#F36A3E"/>
</svg>
