<svg width="27" height="28" viewBox="0 0 27 28" fill="none" xmlns="http://www.w3.org/2000/svg">
<path d="M3.93921 16.5701L12.91 7.82548C13.0675 7.67189 13.2789 7.58594 13.4989 7.58594C13.7189 7.58594 13.9303 7.67189 14.0878 7.82548L23.062 16.5701C23.1354 16.6416 23.1938 16.7272 23.2337 16.8217C23.2736 16.9162 23.2941 17.0177 23.2941 17.1202C23.2941 17.2228 23.2736 17.3243 23.2337 17.4188C23.1938 17.5133 23.1354 17.5988 23.062 17.6704C22.9113 17.8175 22.709 17.8999 22.4983 17.8999C22.2877 17.8999 22.0854 17.8175 21.9347 17.6704L13.4989 9.44717L5.06478 17.6704C4.91416 17.817 4.71223 17.8991 4.502 17.8991C4.29176 17.8991 4.08983 17.817 3.93921 17.6704C3.86574 17.5988 3.80733 17.5133 3.76745 17.4188C3.72758 17.3243 3.70703 17.2228 3.70703 17.1202C3.70703 17.0177 3.72758 16.9162 3.76745 16.8217C3.80733 16.7272 3.86574 16.6416 3.93921 16.5701Z" fill="black"/>
</svg>
